<svg width="410" height="167" viewBox="0 0 410 167" fill="none" xmlns="http://www.w3.org/2000/svg">
<mask id="path-1-outside-1_186_26683" maskUnits="userSpaceOnUse" x="0" y="0" width="410" height="167" fill="black">
<rect fill="white" width="410" height="167"/>
<path d="M191.248 1.76939C187.813 4.48248 182.373 22.0569 175.626 52.4274C172.395 66.9647 170.432 76.7238 168.919 85.7944L167.733 92.6379L159.39 96.2419C142.05 103.733 133.585 106.689 129.536 106.689C127.45 106.689 125.365 105.839 124.506 104.624C123.729 103.531 123.647 102.64 124.301 102.64C124.588 102.64 126.469 101.83 128.554 100.818C135.139 97.6187 139.392 92.8404 139.392 88.548C139.392 86.3613 138.901 85.43 137.347 84.6201C133.871 82.8383 127.696 85.5919 123.851 90.6537C122.42 92.5164 121.479 93.2048 116.776 95.6749C102.954 103.004 91.6254 107.054 85.1638 107.094C81.7286 107.094 81.565 106.851 81.3196 101.061C81.0334 95.027 80.5835 94.1362 77.639 94.1362C74.8172 94.1362 73.2631 94.9865 58.6633 104.462L57.4773 105.232L57.7636 102.64C58.2134 98.8335 61.4851 79.4773 63.1618 70.9331C65.5338 58.8659 69.7461 39.9552 72.5679 28.9409C74.899 19.7082 75.4715 18.048 77.8435 13.1482C80.6244 7.43854 80.9925 5.7378 80.0518 3.06519C79.5202 1.56692 78.7432 1.48593 77.4345 2.78174C74.6536 5.53533 70.8912 16.5902 66.4335 35.2579C64.675 42.6278 59.2358 69.0704 57.8045 77.2097L57.1092 81.1781H55.7188C53.0605 81.1781 44.2679 86.0374 36.4159 91.7875C34.2893 93.3263 32.5308 94.5411 32.4899 94.4601C32.449 94.3791 30.9358 90.4917 29.1773 85.8349C25.3331 75.7114 25.0468 73.8487 26.6826 70.4877C27.7868 68.22 30.2815 65.7094 33.635 63.4417C35.7207 62.0244 35.8433 61.336 34.2075 60.7691C31.6311 59.8783 27.3779 62.0649 25.1286 65.4664C23.6155 67.7341 22.4295 71.4595 22.4295 73.8892C22.4295 76.2783 23.8608 81.4616 26.6826 89.1149C28.1549 93.1238 29.3818 96.6063 29.3818 96.8493C29.3818 97.0922 27.0507 99.4409 24.2289 102.073C14.8228 110.779 8.15679 119.242 4.43526 127.098C1.85881 132.565 1 135.683 1 139.894C1 147.183 4.51705 151.03 11.1831 150.909C20.2211 150.787 30.2815 143.417 34.6983 133.658C36.7022 129.244 37.3156 126.086 37.2747 120.052C37.2747 114.1 36.5795 109.402 34.6983 102.397C33.8803 99.1574 33.6759 97.8211 34.003 97.4567C34.8618 96.4038 43.1637 89.7628 46.3536 87.5761C49.7889 85.2275 56.2913 81.7855 56.6594 82.15C56.7821 82.2714 56.2095 86.6043 55.3507 91.7875C53.4695 103.612 53.1423 108.269 54.0829 109.24C54.9417 110.05 56.0868 109.686 58.786 107.742C63.5299 104.341 74.5718 98.2666 76.4121 98.0641C77.4345 97.9831 77.4345 98.0236 77.639 101.83C77.8844 106.446 78.7432 108.188 81.4832 109.483C83.5689 110.496 86.0227 110.577 90.8075 109.726C97.2281 108.633 104.998 105.434 115.795 99.4409C118.249 98.0641 120.293 96.9708 120.375 96.9708C120.498 96.9708 120.457 98.0236 120.334 99.2789C119.884 103.571 121.602 106.973 125.201 108.755C130.313 111.346 136.325 109.767 155.873 100.615C161.966 97.7401 167.038 95.4725 167.119 95.5535C167.201 95.594 166.669 100.089 166.015 105.515C163.439 125.924 162.498 141.312 163.48 146.981C164.052 150.18 164.993 152.043 166.056 152.043C166.71 152.043 166.751 151.8 166.506 149.734C165.974 145.887 166.22 135.683 166.956 128.759C167.978 119.485 171.086 97.5782 171.904 93.8932C172.068 93.2048 173.54 92.3544 178.243 90.2488C181.596 88.71 184.377 87.2117 184.377 86.9282C184.377 85.8349 182.987 85.9969 179.143 87.6571C176.975 88.5885 174.562 89.6413 173.826 89.9653L172.477 90.5322L172.763 88.9934C174.849 76.8857 180.002 52.0629 182.987 39.5908C186.872 23.3122 188.671 17.3596 191.411 11.9739C193.579 7.68151 193.947 6.66916 193.947 4.88742C193.906 2.82223 193.293 1 192.597 1C192.393 1 191.82 1.36445 191.248 1.76939ZM136.12 87.0497C138.288 89.6413 133.339 96.1609 126.591 99.5624L123.647 101.101L123.524 100.008C123.442 99.4004 123.77 97.8211 124.301 96.5253L125.201 94.0957L129.577 91.666C134.689 88.872 135.261 88.3455 134.566 87.2117C134.157 86.5638 134.198 86.4423 134.852 86.4423C135.261 86.4423 135.834 86.7258 136.12 87.0497ZM31.7946 103.652C35.9251 117.38 34.9436 127.422 28.6457 136.533C25.4149 141.15 19.4441 145.968 15.15 147.345C12.1646 148.317 9.13829 148.56 7.70693 147.993C4.63974 146.738 3.61734 141.595 5.21228 135.4C6.31647 131.067 10.1198 123.454 13.7186 118.433C16.1724 115.031 29.8316 100.615 30.6087 100.615C30.7722 100.615 31.3039 101.992 31.7946 103.652Z"/>
<path d="M209.406 1.6479C207.443 2.98421 204.335 10.5971 201.227 21.6519C196.237 39.3478 189.776 68.5845 186.422 88.6695C182.496 112.277 180.165 140.137 181.515 147.143C182.087 150.099 183.069 152.043 184.009 152.043C184.745 152.043 184.786 151.84 184.5 149.896C184.337 148.763 184.214 144.794 184.214 141.109C184.377 120.255 195.092 59.7973 205.03 23.7981C206.461 18.5744 207.484 15.8208 209.406 11.9739C211.573 7.68151 211.941 6.62866 211.941 4.84693C211.9 2.86272 211.287 1 210.633 1C210.469 1 209.896 1.28346 209.406 1.6479Z"/>
<path d="M220.489 73.4033C220.202 73.5652 219.221 77.6146 218.362 82.4334C213.741 106.973 210.96 117.947 207.484 125.033C201.963 136.452 197.382 148.398 194.765 158.441C193.293 164.11 193.334 164.92 195.01 165.811C195.624 166.134 195.992 166.053 196.564 165.487C198.159 163.907 203.067 150.747 208.342 133.82C212.187 121.51 213.005 119.769 219.466 110.334C226.705 99.7648 234.311 92.233 239.096 90.8967C239.832 90.6942 240.691 90.6537 241.018 90.7347C242.45 91.3016 242.981 96.2824 242.082 100.656C241.632 102.802 241.55 102.883 239.055 104.219C225.682 111.427 217.912 117.582 217.912 121.024C217.912 125.317 225.11 125.721 231.735 121.794C237.092 118.635 242.491 112.156 244.576 106.406L245.517 103.855L250.015 101.668C255.495 98.9955 258.563 97.5782 265.76 94.5411C272.59 91.6661 273.326 91.4231 272.999 92.152C270.872 96.9708 270.545 98.1451 270.545 100.413C270.586 104.786 272.508 107.702 276.311 109.119C281.464 111.063 288.049 109.159 306.166 100.575C309.805 98.874 312.791 97.5377 312.791 97.6187C312.791 97.7402 312.504 98.469 312.177 99.2789C311.318 101.344 311.4 103.571 312.382 104.462C312.791 104.827 313.977 105.272 314.958 105.353C317.044 105.596 321.174 104.098 326.695 101.101C333.852 97.2137 336.02 96.5658 335.774 98.388C335.733 98.8335 335.651 100.656 335.611 102.437C335.57 105.07 335.733 106.001 336.469 107.418C337.983 110.334 342.195 112.358 346.653 112.358C350.333 112.318 360.353 109.605 369.023 106.203C386.24 99.5219 409.305 88.2646 409.305 86.5638C409.305 85.511 407.424 86.1184 400.39 89.5199C382.927 97.9831 365.874 104.746 354.995 107.54C347.307 109.483 342.195 108.997 339.864 106.082C338.678 104.624 338.678 101.911 339.823 97.7402C340.845 94.0957 340.6 93.3263 338.392 93.3263C336.919 93.3668 335.202 94.0552 325.223 98.712C321.133 100.656 317.044 102.316 316.103 102.478C314.59 102.721 314.426 102.64 314.426 101.911C314.426 100.818 317.453 96.4443 319.211 94.9866C319.988 94.3387 323.71 92.4354 327.431 90.7347L334.22 87.6572L335.692 89.3579C336.551 90.2893 337.369 90.8967 337.614 90.7752C338.391 90.2893 337.451 88.0216 335.897 86.4423C334.547 85.106 334.261 85.025 331.889 85.025C329.885 85.025 328.74 85.3085 326.491 86.3613C323.669 87.6976 320.316 89.9653 317.903 92.1115C317.248 92.7594 314.754 94.0552 312.382 95.0675C310.01 96.0799 305.552 98.0236 302.444 99.3599C288.376 105.474 280.524 107.621 277.007 106.284C275.044 105.555 272.999 102.64 274.471 102.64C274.717 102.64 276.802 101.749 279.052 100.656C285.84 97.3352 289.562 93.0023 289.644 88.386C289.684 86.8068 289.48 86.2803 288.539 85.349C287.558 84.3366 287.149 84.2152 284.859 84.2557C282.16 84.2961 280.728 84.8226 277.62 87.0497C276.598 87.7786 273.653 89.1149 271.077 90.0868C265.474 92.152 253.819 97.0113 250.629 98.5905C246.58 100.615 246.539 100.615 246.539 98.0641C246.539 94.7841 245.476 91.7875 243.677 90.0058C242.368 88.6695 241.877 88.467 240.282 88.467C234.843 88.467 227.114 94.8651 218.812 106.284C217.135 108.633 215.581 110.698 215.417 110.901C215.254 111.063 216.031 107.702 217.135 103.409C219.466 94.1362 222.37 80.4492 222.697 76.7643C222.901 74.5371 222.86 74.0917 222.206 73.6462C221.306 72.9983 221.143 72.9578 220.489 73.4033ZM286.904 87.9001C287.026 88.2241 286.904 89.2769 286.658 90.2083C285.922 92.5974 280.81 97.5377 276.966 99.5219C275.33 100.332 273.899 101.02 273.735 101.02C273.162 101.02 273.94 97.7402 275.125 95.2295C277.17 90.8157 278.356 89.6414 281.996 88.4265C285.758 87.1307 286.576 87.0497 286.904 87.9001ZM239.342 107.985C237.951 112.48 227.686 121.267 223.842 121.267C220.897 121.267 221.266 118.919 224.537 116.286C228.095 113.492 238.319 107.094 239.301 107.094C239.505 107.094 239.505 107.499 239.342 107.985Z"/>
</mask>
<path d="M191.248 1.76939C187.813 4.48248 182.373 22.0569 175.626 52.4274C172.395 66.9647 170.432 76.7238 168.919 85.7944L167.733 92.6379L159.39 96.2419C142.05 103.733 133.585 106.689 129.536 106.689C127.45 106.689 125.365 105.839 124.506 104.624C123.729 103.531 123.647 102.64 124.301 102.64C124.588 102.64 126.469 101.83 128.554 100.818C135.139 97.6187 139.392 92.8404 139.392 88.548C139.392 86.3613 138.901 85.43 137.347 84.6201C133.871 82.8383 127.696 85.5919 123.851 90.6537C122.42 92.5164 121.479 93.2048 116.776 95.6749C102.954 103.004 91.6254 107.054 85.1638 107.094C81.7286 107.094 81.565 106.851 81.3196 101.061C81.0334 95.027 80.5835 94.1362 77.639 94.1362C74.8172 94.1362 73.2631 94.9865 58.6633 104.462L57.4773 105.232L57.7636 102.64C58.2134 98.8335 61.4851 79.4773 63.1618 70.9331C65.5338 58.8659 69.7461 39.9552 72.5679 28.9409C74.899 19.7082 75.4715 18.048 77.8435 13.1482C80.6244 7.43854 80.9925 5.7378 80.0518 3.06519C79.5202 1.56692 78.7432 1.48593 77.4345 2.78174C74.6536 5.53533 70.8912 16.5902 66.4335 35.2579C64.675 42.6278 59.2358 69.0704 57.8045 77.2097L57.1092 81.1781H55.7188C53.0605 81.1781 44.2679 86.0374 36.4159 91.7875C34.2893 93.3263 32.5308 94.5411 32.4899 94.4601C32.449 94.3791 30.9358 90.4917 29.1773 85.8349C25.3331 75.7114 25.0468 73.8487 26.6826 70.4877C27.7868 68.22 30.2815 65.7094 33.635 63.4417C35.7207 62.0244 35.8433 61.336 34.2075 60.7691C31.6311 59.8783 27.3779 62.0649 25.1286 65.4664C23.6155 67.7341 22.4295 71.4595 22.4295 73.8892C22.4295 76.2783 23.8608 81.4616 26.6826 89.1149C28.1549 93.1238 29.3818 96.6063 29.3818 96.8493C29.3818 97.0922 27.0507 99.4409 24.2289 102.073C14.8228 110.779 8.15679 119.242 4.43526 127.098C1.85881 132.565 1 135.683 1 139.894C1 147.183 4.51705 151.03 11.1831 150.909C20.2211 150.787 30.2815 143.417 34.6983 133.658C36.7022 129.244 37.3156 126.086 37.2747 120.052C37.2747 114.1 36.5795 109.402 34.6983 102.397C33.8803 99.1574 33.6759 97.8211 34.003 97.4567C34.8618 96.4038 43.1637 89.7628 46.3536 87.5761C49.7889 85.2275 56.2913 81.7855 56.6594 82.15C56.7821 82.2714 56.2095 86.6043 55.3507 91.7875C53.4695 103.612 53.1423 108.269 54.0829 109.24C54.9417 110.05 56.0868 109.686 58.786 107.742C63.5299 104.341 74.5718 98.2666 76.4121 98.0641C77.4345 97.9831 77.4345 98.0236 77.639 101.83C77.8844 106.446 78.7432 108.188 81.4832 109.483C83.5689 110.496 86.0227 110.577 90.8075 109.726C97.2281 108.633 104.998 105.434 115.795 99.4409C118.249 98.0641 120.293 96.9708 120.375 96.9708C120.498 96.9708 120.457 98.0236 120.334 99.2789C119.884 103.571 121.602 106.973 125.201 108.755C130.313 111.346 136.325 109.767 155.873 100.615C161.966 97.7401 167.038 95.4725 167.119 95.5535C167.201 95.594 166.669 100.089 166.015 105.515C163.439 125.924 162.498 141.312 163.48 146.981C164.052 150.18 164.993 152.043 166.056 152.043C166.71 152.043 166.751 151.8 166.506 149.734C165.974 145.887 166.22 135.683 166.956 128.759C167.978 119.485 171.086 97.5782 171.904 93.8932C172.068 93.2048 173.54 92.3544 178.243 90.2488C181.596 88.71 184.377 87.2117 184.377 86.9282C184.377 85.8349 182.987 85.9969 179.143 87.6571C176.975 88.5885 174.562 89.6413 173.826 89.9653L172.477 90.5322L172.763 88.9934C174.849 76.8857 180.002 52.0629 182.987 39.5908C186.872 23.3122 188.671 17.3596 191.411 11.9739C193.579 7.68151 193.947 6.66916 193.947 4.88742C193.906 2.82223 193.293 1 192.597 1C192.393 1 191.82 1.36445 191.248 1.76939ZM136.12 87.0497C138.288 89.6413 133.339 96.1609 126.591 99.5624L123.647 101.101L123.524 100.008C123.442 99.4004 123.77 97.8211 124.301 96.5253L125.201 94.0957L129.577 91.666C134.689 88.872 135.261 88.3455 134.566 87.2117C134.157 86.5638 134.198 86.4423 134.852 86.4423C135.261 86.4423 135.834 86.7258 136.12 87.0497ZM31.7946 103.652C35.9251 117.38 34.9436 127.422 28.6457 136.533C25.4149 141.15 19.4441 145.968 15.15 147.345C12.1646 148.317 9.13829 148.56 7.70693 147.993C4.63974 146.738 3.61734 141.595 5.21228 135.4C6.31647 131.067 10.1198 123.454 13.7186 118.433C16.1724 115.031 29.8316 100.615 30.6087 100.615C30.7722 100.615 31.3039 101.992 31.7946 103.652Z" fill="#A6ED8E"/>
<path d="M209.406 1.6479C207.443 2.98421 204.335 10.5971 201.227 21.6519C196.237 39.3478 189.776 68.5845 186.422 88.6695C182.496 112.277 180.165 140.137 181.515 147.143C182.087 150.099 183.069 152.043 184.009 152.043C184.745 152.043 184.786 151.84 184.5 149.896C184.337 148.763 184.214 144.794 184.214 141.109C184.377 120.255 195.092 59.7973 205.03 23.7981C206.461 18.5744 207.484 15.8208 209.406 11.9739C211.573 7.68151 211.941 6.62866 211.941 4.84693C211.9 2.86272 211.287 1 210.633 1C210.469 1 209.896 1.28346 209.406 1.6479Z" fill="#A6ED8E"/>
<path d="M220.489 73.4033C220.202 73.5652 219.221 77.6146 218.362 82.4334C213.741 106.973 210.96 117.947 207.484 125.033C201.963 136.452 197.382 148.398 194.765 158.441C193.293 164.11 193.334 164.92 195.01 165.811C195.624 166.134 195.992 166.053 196.564 165.487C198.159 163.907 203.067 150.747 208.342 133.82C212.187 121.51 213.005 119.769 219.466 110.334C226.705 99.7648 234.311 92.233 239.096 90.8967C239.832 90.6942 240.691 90.6537 241.018 90.7347C242.45 91.3016 242.981 96.2824 242.082 100.656C241.632 102.802 241.55 102.883 239.055 104.219C225.682 111.427 217.912 117.582 217.912 121.024C217.912 125.317 225.11 125.721 231.735 121.794C237.092 118.635 242.491 112.156 244.576 106.406L245.517 103.855L250.015 101.668C255.495 98.9955 258.563 97.5782 265.76 94.5411C272.59 91.6661 273.326 91.4231 272.999 92.152C270.872 96.9708 270.545 98.1451 270.545 100.413C270.586 104.786 272.508 107.702 276.311 109.119C281.464 111.063 288.049 109.159 306.166 100.575C309.805 98.874 312.791 97.5377 312.791 97.6187C312.791 97.7402 312.504 98.469 312.177 99.2789C311.318 101.344 311.4 103.571 312.382 104.462C312.791 104.827 313.977 105.272 314.958 105.353C317.044 105.596 321.174 104.098 326.695 101.101C333.852 97.2137 336.02 96.5658 335.774 98.388C335.733 98.8335 335.651 100.656 335.611 102.437C335.57 105.07 335.733 106.001 336.469 107.418C337.983 110.334 342.195 112.358 346.653 112.358C350.333 112.318 360.353 109.605 369.023 106.203C386.24 99.5219 409.305 88.2646 409.305 86.5638C409.305 85.511 407.424 86.1184 400.39 89.5199C382.927 97.9831 365.874 104.746 354.995 107.54C347.307 109.483 342.195 108.997 339.864 106.082C338.678 104.624 338.678 101.911 339.823 97.7402C340.845 94.0957 340.6 93.3263 338.392 93.3263C336.919 93.3668 335.202 94.0552 325.223 98.712C321.133 100.656 317.044 102.316 316.103 102.478C314.59 102.721 314.426 102.64 314.426 101.911C314.426 100.818 317.453 96.4443 319.211 94.9866C319.988 94.3387 323.71 92.4354 327.431 90.7347L334.22 87.6572L335.692 89.3579C336.551 90.2893 337.369 90.8967 337.614 90.7752C338.391 90.2893 337.451 88.0216 335.897 86.4423C334.547 85.106 334.261 85.025 331.889 85.025C329.885 85.025 328.74 85.3085 326.491 86.3613C323.669 87.6976 320.316 89.9653 317.903 92.1115C317.248 92.7594 314.754 94.0552 312.382 95.0675C310.01 96.0799 305.552 98.0236 302.444 99.3599C288.376 105.474 280.524 107.621 277.007 106.284C275.044 105.555 272.999 102.64 274.471 102.64C274.717 102.64 276.802 101.749 279.052 100.656C285.84 97.3352 289.562 93.0023 289.644 88.386C289.684 86.8068 289.48 86.2803 288.539 85.349C287.558 84.3366 287.149 84.2152 284.859 84.2557C282.16 84.2961 280.728 84.8226 277.62 87.0497C276.598 87.7786 273.653 89.1149 271.077 90.0868C265.474 92.152 253.819 97.0113 250.629 98.5905C246.58 100.615 246.539 100.615 246.539 98.0641C246.539 94.7841 245.476 91.7875 243.677 90.0058C242.368 88.6695 241.877 88.467 240.282 88.467C234.843 88.467 227.114 94.8651 218.812 106.284C217.135 108.633 215.581 110.698 215.417 110.901C215.254 111.063 216.031 107.702 217.135 103.409C219.466 94.1362 222.37 80.4492 222.697 76.7643C222.901 74.5371 222.86 74.0917 222.206 73.6462C221.306 72.9983 221.143 72.9578 220.489 73.4033ZM286.904 87.9001C287.026 88.2241 286.904 89.2769 286.658 90.2083C285.922 92.5974 280.81 97.5377 276.966 99.5219C275.33 100.332 273.899 101.02 273.735 101.02C273.162 101.02 273.94 97.7402 275.125 95.2295C277.17 90.8157 278.356 89.6414 281.996 88.4265C285.758 87.1307 286.576 87.0497 286.904 87.9001ZM239.342 107.985C237.951 112.48 227.686 121.267 223.842 121.267C220.897 121.267 221.266 118.919 224.537 116.286C228.095 113.492 238.319 107.094 239.301 107.094C239.505 107.094 239.505 107.499 239.342 107.985Z" fill="#A6ED8E"/>
<path d="M191.248 1.76939C187.813 4.48248 182.373 22.0569 175.626 52.4274C172.395 66.9647 170.432 76.7238 168.919 85.7944L167.733 92.6379L159.39 96.2419C142.05 103.733 133.585 106.689 129.536 106.689C127.45 106.689 125.365 105.839 124.506 104.624C123.729 103.531 123.647 102.64 124.301 102.64C124.588 102.64 126.469 101.83 128.554 100.818C135.139 97.6187 139.392 92.8404 139.392 88.548C139.392 86.3613 138.901 85.43 137.347 84.6201C133.871 82.8383 127.696 85.5919 123.851 90.6537C122.42 92.5164 121.479 93.2048 116.776 95.6749C102.954 103.004 91.6254 107.054 85.1638 107.094C81.7286 107.094 81.565 106.851 81.3196 101.061C81.0334 95.027 80.5835 94.1362 77.639 94.1362C74.8172 94.1362 73.2631 94.9865 58.6633 104.462L57.4773 105.232L57.7636 102.64C58.2134 98.8335 61.4851 79.4773 63.1618 70.9331C65.5338 58.8659 69.7461 39.9552 72.5679 28.9409C74.899 19.7082 75.4715 18.048 77.8435 13.1482C80.6244 7.43854 80.9925 5.7378 80.0518 3.06519C79.5202 1.56692 78.7432 1.48593 77.4345 2.78174C74.6536 5.53533 70.8912 16.5902 66.4335 35.2579C64.675 42.6278 59.2358 69.0704 57.8045 77.2097L57.1092 81.1781H55.7188C53.0605 81.1781 44.2679 86.0374 36.4159 91.7875C34.2893 93.3263 32.5308 94.5411 32.4899 94.4601C32.449 94.3791 30.9358 90.4917 29.1773 85.8349C25.3331 75.7114 25.0468 73.8487 26.6826 70.4877C27.7868 68.22 30.2815 65.7094 33.635 63.4417C35.7207 62.0244 35.8433 61.336 34.2075 60.7691C31.6311 59.8783 27.3779 62.0649 25.1286 65.4664C23.6155 67.7341 22.4295 71.4595 22.4295 73.8892C22.4295 76.2783 23.8608 81.4616 26.6826 89.1149C28.1549 93.1238 29.3818 96.6063 29.3818 96.8493C29.3818 97.0922 27.0507 99.4409 24.2289 102.073C14.8228 110.779 8.15679 119.242 4.43526 127.098C1.85881 132.565 1 135.683 1 139.894C1 147.183 4.51705 151.03 11.1831 150.909C20.2211 150.787 30.2815 143.417 34.6983 133.658C36.7022 129.244 37.3156 126.086 37.2747 120.052C37.2747 114.1 36.5795 109.402 34.6983 102.397C33.8803 99.1574 33.6759 97.8211 34.003 97.4567C34.8618 96.4038 43.1637 89.7628 46.3536 87.5761C49.7889 85.2275 56.2913 81.7855 56.6594 82.15C56.7821 82.2714 56.2095 86.6043 55.3507 91.7875C53.4695 103.612 53.1423 108.269 54.0829 109.24C54.9417 110.05 56.0868 109.686 58.786 107.742C63.5299 104.341 74.5718 98.2666 76.4121 98.0641C77.4345 97.9831 77.4345 98.0236 77.639 101.83C77.8844 106.446 78.7432 108.188 81.4832 109.483C83.5689 110.496 86.0227 110.577 90.8075 109.726C97.2281 108.633 104.998 105.434 115.795 99.4409C118.249 98.0641 120.293 96.9708 120.375 96.9708C120.498 96.9708 120.457 98.0236 120.334 99.2789C119.884 103.571 121.602 106.973 125.201 108.755C130.313 111.346 136.325 109.767 155.873 100.615C161.966 97.7401 167.038 95.4725 167.119 95.5535C167.201 95.594 166.669 100.089 166.015 105.515C163.439 125.924 162.498 141.312 163.48 146.981C164.052 150.18 164.993 152.043 166.056 152.043C166.71 152.043 166.751 151.8 166.506 149.734C165.974 145.887 166.22 135.683 166.956 128.759C167.978 119.485 171.086 97.5782 171.904 93.8932C172.068 93.2048 173.54 92.3544 178.243 90.2488C181.596 88.71 184.377 87.2117 184.377 86.9282C184.377 85.8349 182.987 85.9969 179.143 87.6571C176.975 88.5885 174.562 89.6413 173.826 89.9653L172.477 90.5322L172.763 88.9934C174.849 76.8857 180.002 52.0629 182.987 39.5908C186.872 23.3122 188.671 17.3596 191.411 11.9739C193.579 7.68151 193.947 6.66916 193.947 4.88742C193.906 2.82223 193.293 1 192.597 1C192.393 1 191.82 1.36445 191.248 1.76939ZM136.12 87.0497C138.288 89.6413 133.339 96.1609 126.591 99.5624L123.647 101.101L123.524 100.008C123.442 99.4004 123.77 97.8211 124.301 96.5253L125.201 94.0957L129.577 91.666C134.689 88.872 135.261 88.3455 134.566 87.2117C134.157 86.5638 134.198 86.4423 134.852 86.4423C135.261 86.4423 135.834 86.7258 136.12 87.0497ZM31.7946 103.652C35.9251 117.38 34.9436 127.422 28.6457 136.533C25.4149 141.15 19.4441 145.968 15.15 147.345C12.1646 148.317 9.13829 148.56 7.70693 147.993C4.63974 146.738 3.61734 141.595 5.21228 135.4C6.31647 131.067 10.1198 123.454 13.7186 118.433C16.1724 115.031 29.8316 100.615 30.6087 100.615C30.7722 100.615 31.3039 101.992 31.7946 103.652Z" stroke="#A6ED8E" mask="url(#path-1-outside-1_186_26683)"/>
<path d="M209.406 1.6479C207.443 2.98421 204.335 10.5971 201.227 21.6519C196.237 39.3478 189.776 68.5845 186.422 88.6695C182.496 112.277 180.165 140.137 181.515 147.143C182.087 150.099 183.069 152.043 184.009 152.043C184.745 152.043 184.786 151.84 184.5 149.896C184.337 148.763 184.214 144.794 184.214 141.109C184.377 120.255 195.092 59.7973 205.03 23.7981C206.461 18.5744 207.484 15.8208 209.406 11.9739C211.573 7.68151 211.941 6.62866 211.941 4.84693C211.9 2.86272 211.287 1 210.633 1C210.469 1 209.896 1.28346 209.406 1.6479Z" stroke="#A6ED8E" mask="url(#path-1-outside-1_186_26683)"/>
<path d="M220.489 73.4033C220.202 73.5652 219.221 77.6146 218.362 82.4334C213.741 106.973 210.96 117.947 207.484 125.033C201.963 136.452 197.382 148.398 194.765 158.441C193.293 164.11 193.334 164.92 195.01 165.811C195.624 166.134 195.992 166.053 196.564 165.487C198.159 163.907 203.067 150.747 208.342 133.82C212.187 121.51 213.005 119.769 219.466 110.334C226.705 99.7648 234.311 92.233 239.096 90.8967C239.832 90.6942 240.691 90.6537 241.018 90.7347C242.45 91.3016 242.981 96.2824 242.082 100.656C241.632 102.802 241.55 102.883 239.055 104.219C225.682 111.427 217.912 117.582 217.912 121.024C217.912 125.317 225.11 125.721 231.735 121.794C237.092 118.635 242.491 112.156 244.576 106.406L245.517 103.855L250.015 101.668C255.495 98.9955 258.563 97.5782 265.76 94.5411C272.59 91.6661 273.326 91.4231 272.999 92.152C270.872 96.9708 270.545 98.1451 270.545 100.413C270.586 104.786 272.508 107.702 276.311 109.119C281.464 111.063 288.049 109.159 306.166 100.575C309.805 98.874 312.791 97.5377 312.791 97.6187C312.791 97.7402 312.504 98.469 312.177 99.2789C311.318 101.344 311.4 103.571 312.382 104.462C312.791 104.827 313.977 105.272 314.958 105.353C317.044 105.596 321.174 104.098 326.695 101.101C333.852 97.2137 336.02 96.5658 335.774 98.388C335.733 98.8335 335.651 100.656 335.611 102.437C335.57 105.07 335.733 106.001 336.469 107.418C337.983 110.334 342.195 112.358 346.653 112.358C350.333 112.318 360.353 109.605 369.023 106.203C386.24 99.5219 409.305 88.2646 409.305 86.5638C409.305 85.511 407.424 86.1184 400.39 89.5199C382.927 97.9831 365.874 104.746 354.995 107.54C347.307 109.483 342.195 108.997 339.864 106.082C338.678 104.624 338.678 101.911 339.823 97.7402C340.845 94.0957 340.6 93.3263 338.392 93.3263C336.919 93.3668 335.202 94.0552 325.223 98.712C321.133 100.656 317.044 102.316 316.103 102.478C314.59 102.721 314.426 102.64 314.426 101.911C314.426 100.818 317.453 96.4443 319.211 94.9866C319.988 94.3387 323.71 92.4354 327.431 90.7347L334.22 87.6572L335.692 89.3579C336.551 90.2893 337.369 90.8967 337.614 90.7752C338.391 90.2893 337.451 88.0216 335.897 86.4423C334.547 85.106 334.261 85.025 331.889 85.025C329.885 85.025 328.74 85.3085 326.491 86.3613C323.669 87.6976 320.316 89.9653 317.903 92.1115C317.248 92.7594 314.754 94.0552 312.382 95.0675C310.01 96.0799 305.552 98.0236 302.444 99.3599C288.376 105.474 280.524 107.621 277.007 106.284C275.044 105.555 272.999 102.64 274.471 102.64C274.717 102.64 276.802 101.749 279.052 100.656C285.84 97.3352 289.562 93.0023 289.644 88.386C289.684 86.8068 289.48 86.2803 288.539 85.349C287.558 84.3366 287.149 84.2152 284.859 84.2557C282.16 84.2961 280.728 84.8226 277.62 87.0497C276.598 87.7786 273.653 89.1149 271.077 90.0868C265.474 92.152 253.819 97.0113 250.629 98.5905C246.58 100.615 246.539 100.615 246.539 98.0641C246.539 94.7841 245.476 91.7875 243.677 90.0058C242.368 88.6695 241.877 88.467 240.282 88.467C234.843 88.467 227.114 94.8651 218.812 106.284C217.135 108.633 215.581 110.698 215.417 110.901C215.254 111.063 216.031 107.702 217.135 103.409C219.466 94.1362 222.37 80.4492 222.697 76.7643C222.901 74.5371 222.86 74.0917 222.206 73.6462C221.306 72.9983 221.143 72.9578 220.489 73.4033ZM286.904 87.9001C287.026 88.2241 286.904 89.2769 286.658 90.2083C285.922 92.5974 280.81 97.5377 276.966 99.5219C275.33 100.332 273.899 101.02 273.735 101.02C273.162 101.02 273.94 97.7402 275.125 95.2295C277.17 90.8157 278.356 89.6414 281.996 88.4265C285.758 87.1307 286.576 87.0497 286.904 87.9001ZM239.342 107.985C237.951 112.48 227.686 121.267 223.842 121.267C220.897 121.267 221.266 118.919 224.537 116.286C228.095 113.492 238.319 107.094 239.301 107.094C239.505 107.094 239.505 107.499 239.342 107.985Z" stroke="#A6ED8E" mask="url(#path-1-outside-1_186_26683)"/>
</svg>
